<?xml version="1.0" encoding="utf-8"?>
<!-- Generator: Adobe Illustrator 22.0.1, SVG Export Plug-In . SVG Version: 6.00 Build 0)  -->
<svg version="1.1" id="Calque_1" xmlns="http://www.w3.org/2000/svg" xmlns:xlink="http://www.w3.org/1999/xlink" x="0px" y="0px"
	 viewBox="0 0 64 64" style="enable-background:new 0 0 64 64;" xml:space="preserve">
<style type="text/css">
	.st0{fill:#C90C0F;}
	.st1{fill:#8A1002;}
	.st2{fill:none;}
</style>
<circle class="st0" cx="32.2" cy="24.2" r="4.9"/>
<path class="st1" d="M32.2,8.5c-8.7,0-15.7,7-15.7,15.7s7,15.7,15.7,15.7s15.7-7,15.7-15.7S40.9,8.5,32.2,8.5z M32.2,37.4
	c-7.3,0-13.2-5.9-13.2-13.2S24.9,11,32.2,11s13.2,5.9,13.2,13.2S39.5,37.4,32.2,37.4z"/>
<g>
	<path class="st2" d="M16.5,24.1c0,8.6,7,15.6,15.6,15.6V8.5C23.5,8.5,16.5,15.5,16.5,24.1z"/>
	<path class="st0" d="M16.5,24.1c0-8.6,7-15.6,15.6-15.6V3.8c-11.3,0-20.4,9.1-20.4,20.4c0,11.3,17.1,38,20.4,38V39.7
		C23.5,39.7,16.5,32.7,16.5,24.1z"/>
	<path class="st1" d="M52.6,24.2c0-11.3-9.1-20.4-20.4-20.4c0,0,0,0,0,0v4.7c8.6,0,15.6,7,15.6,15.6s-7,15.6-15.6,15.6v22.5
		c0,0,0,0,0,0C35.5,62.2,52.6,35.5,52.6,24.2z"/>
</g>
</svg>
